<svg version="1.1" xmlns="http://www.w3.org/2000/svg" xmlns:xlink="http://www.w3.org/1999/xlink" width="73.2902" height="82.06959" viewBox="0,0,73.2902,82.06959"><g transform="translate(-203.3549,-117.62374)"><g stroke-miterlimit="10"><path d="M203.8549,199.19333v-38.38666h72.2902v38.38666z" fill-opacity="0.56078" fill="#555555" stroke="#ffffff" stroke-width="1" stroke-linecap="butt"/><text transform="translate(207.5,189.30216) scale(0.5,0.5)" font-size="40" xml:space="preserve" fill-opacity="0.81176" fill="#ffffff" stroke="none" stroke-width="1" stroke-linecap="butt" font-family="Pixel" font-weight="normal" text-anchor="start"><tspan x="0" dy="0"> </tspan></text><text transform="translate(208.9029,189.2717) scale(0.42893,0.42893)" font-size="40" xml:space="preserve" fill-opacity="0.81176" fill="#ffffff" stroke="none" stroke-width="1" stroke-linecap="butt" font-family="Pixel" font-weight="normal" text-anchor="start"><tspan x="0" dy="0">cam 1A</tspan></text><g stroke="#cb0000" stroke-width="2"><path d="M218.13915,157.80805c0,0 7.94793,-17.02109 11.64222,-23.94767c2.99386,-5.6133 8.86724,-14.50635 8.86724,-14.50635c0,0 7.04649,9.30811 10.50867,15.04363c4.14994,6.8749 12.70357,23.41039 12.70357,23.41039z" fill-opacity="0.40784" fill="#000000" stroke-linecap="butt"/><path d="M239.01717,148.40934v-19.65661" fill="none" stroke-linecap="round"/><path d="M239.63144,152.79147c0,0.2714 -0.27501,0.49141 -0.61427,0.49141c-0.33926,0 -0.61427,-0.22001 -0.61427,-0.49141c0,-0.2714 0.27501,-0.49141 0.61427,-0.49141c0.33926,0 0.61427,0.22001 0.61427,0.49141z" fill="none" stroke-linecap="butt"/></g></g></g></svg>