<svg version="1.1" xmlns="http://www.w3.org/2000/svg" xmlns:xlink="http://www.w3.org/1999/xlink" width="188.61162" height="32.62315" viewBox="0,0,188.61162,32.62315"><g transform="translate(-145.38838,-154.70199)"><g stroke-miterlimit="10"><path d="M146,187.32514v-14.65028h188v14.65028z" fill-opacity="0.69804" fill="#b8b8b8" stroke="#000000" stroke-width="0" stroke-linecap="butt"/><g fill="none" stroke-opacity="0.56078" stroke="#000000" stroke-width="1.5" stroke-linecap="round"><g><path d="M155.58938,179.36782l83.78893,-2.17899"/><path d="M240.62169,177.18883l83.78893,2.17899"/></g><g><path d="M155.58938,183.76074l83.78893,-2.17899"/><path d="M240.62169,181.58175l83.78893,2.17899"/></g></g><g stroke="#cb0000" stroke-width="1"><path d="M146.17368,170.21741c0,0 3.02802,-6.48472 4.43547,-9.12363c1.1406,-2.13856 3.37825,-5.52665 3.37825,-5.52665c0,0 2.68459,3.54622 4.00361,5.73135c1.58105,2.61921 4.83983,8.91893 4.83983,8.91893z" fill-opacity="0.40784" fill="#000000" stroke-linecap="butt"/><path d="M154.12782,166.63668v-7.48881" fill="none" stroke-linecap="round"/><path d="M154.36184,168.30619c0,0.1034 -0.10478,0.18722 -0.23403,0.18722c-0.12925,0 -0.23403,-0.08382 -0.23403,-0.18722c0,-0.1034 0.10478,-0.18722 0.23403,-0.18722c0.12925,0 0.23403,0.08382 0.23403,0.18722z" fill="none" stroke-linecap="butt"/></g></g></g></svg>