<svg version="1.1" xmlns="http://www.w3.org/2000/svg" xmlns:xlink="http://www.w3.org/1999/xlink" width="462.45795" height="342.33784" viewBox="0,0,462.45795,342.33784"><g transform="translate(-8.77102,-8.83109)"><g stroke="#000000" stroke-width="4.5" stroke-miterlimit="10"><g><path d="M11.02102,337.78299c0,-30.05704 0,-263.04305 0,-316.01193c0,-6.85051 2.65908,-10.68997 7.56824,-10.68997c55.64597,0 400.3945,0 438.60573,0c6.75775,0 11.78398,5.19307 11.78398,11.80487c0,31.21381 0,269.44474 0,317.5728c0,5.44809 -3.19165,8.46017 -7.77033,8.46017c-32.23669,0 -390.01286,0 -443.5113,0c-4.33889,0 -6.67632,-4.869 -6.67632,-11.13593z" fill="#2f2f2f"/><path d="M24.75976,318.84903c0,-26.4502 0,-231.47788 0,-278.0905c0,-6.02845 2.49953,-9.40718 7.11415,-9.40718c52.30722,0 376.37083,0 412.28939,0c6.35228,0 11.07695,4.5699 11.07695,10.38829c0,27.46815 0,237.11137 0,279.46406c0,4.79432 -3.00015,7.44495 -7.30411,7.44495c-30.30249,0 -366.61209,0 -416.90062,0c-4.07855,0 -6.27575,-4.28472 -6.27575,-9.79962z" fill="#7a7a7a"/></g></g></g></svg>