<svg version="1.1" xmlns="http://www.w3.org/2000/svg" xmlns:xlink="http://www.w3.org/1999/xlink" width="617.3467" height="528.30968" viewBox="0,0,617.3467,528.30968"><defs><linearGradient x1="173.88622" y1="282.53904" x2="173.88622" y2="409.31231" gradientUnits="userSpaceOnUse" id="color-1"><stop offset="0" stop-color="#2f4377"/><stop offset="1" stop-color="#1f2e4e"/></linearGradient><radialGradient cx="214.99433" cy="287.59693" r="26.69797" gradientUnits="userSpaceOnUse" id="color-2"><stop offset="0" stop-color="#000000" stop-opacity="0"/><stop offset="1" stop-color="#000000" stop-opacity="0.4902"/></radialGradient></defs><g transform="translate(50.79842,49.09416)"><g stroke-miterlimit="10"><path d="M-48.54842,454.75755l249.34927,-169.6806" fill="none" stroke="#000000" stroke-width="4.5" stroke-linecap="round"/><path d="M334.64932,291.44785l195.99306,185.51767" fill="none" stroke="#000000" stroke-width="4.5" stroke-linecap="round"/><path d="M200.81989,284.67695l6.57691,-138.1769l133.84847,6.37089l-6.57691,138.1769z" fill="none" stroke="#000000" stroke-width="4.5" stroke-linecap="butt"/><g fill="none" stroke="#000000" stroke-width="4.5" stroke-linecap="round"><path d="M341.28085,152.12351l223.01743,-111.97141"/><path d="M207.43238,145.75262l-232.10566,-192.59678"/></g><path d="M374.26786,326.93826l2.51805,-137.03525l73.20535,0.40176l-15.72288,195.18987z" fill="#000000" stroke="#000000" stroke-width="4.5" stroke-linecap="round"/><path d="M230.10074,285.8404l5.55819,-116.77403l75.55966,3.59647l-5.55819,116.77403z" fill="#000000" stroke="#000000" stroke-width="4.5" stroke-linecap="butt"/><path d="M149.1839,409.31231l-63.99767,-46.35073l117.02202,-80.42254l60.37796,5.49962c0,0 -3.13878,6.08572 -9.28546,12.65906c-2.44248,2.61201 -7.10171,4.86556 -9.5731,7.5085c-3.09151,3.3061 -6.55281,9.14784 -11.92817,14.8963c-2.7082,2.89618 -6.67394,4.99699 -9.76178,8.29915c-4.80084,5.13407 -7.9111,11.7064 -13.21569,17.37919c-6.02579,6.44405 -14.28248,12.02765 -20.26398,18.42433c-5.11122,5.46599 -8.52014,13.35603 -13.09898,18.25269c-14.19453,15.17979 -26.27515,23.85443 -26.27515,23.85443z" fill="url(#color-1)" stroke="#000000" stroke-width="4.5" stroke-linecap="butt"/><path d="M241.43634,297.0787l-9.49836,9.9138l-34.87472,-7.32463l7.60308,-10.93969" fill="url(#color-2)" stroke="#000000" stroke-width="4.5" stroke-linecap="round"/><path d="M172.4688,314.87537l41.43521,13.727" fill="none" stroke="#233459" stroke-width="4.5" stroke-linecap="round"/><path d="M140.21269,338.91787l37.36795,21.86152" fill="none" stroke="#233459" stroke-width="4.5" stroke-linecap="round"/><g stroke-linecap="butt"><path d="M424.91267,389.19974c0,0 0,-23.60935 0,-33.5645c0,-3.4681 2.78674,-7.78038 2.78674,-11.79009c0,-2.12926 4.51651,-3.35165 9.86139,-3.68394c1.27121,-0.07902 0.68906,-7.16034 0.68906,-7.16034l6.87181,0.5309c0,0 0.09117,6.73798 0.82088,6.8185c4.89102,0.53978 8.84975,1.85222 8.84975,3.92359c0,4.03991 2.78674,8.33976 2.78674,11.7901c0,9.91684 0,33.13577 0,33.13577z" fill="#e8c6d1" stroke="#000000" stroke-width="4.5"/><path d="M436.31547,335.45894c0,0 0,-7.56096 0,-9.37175c0,-0.739 0.61019,-1.56087 1.20686,-1.56087c1.32212,0 6.52815,0 8.83253,0c0.68022,0 1.10762,0.47458 1.10762,0.96543c0,1.57717 0,9.96721 0,9.96721z" fill="#bf5aa1" stroke="#000000" stroke-width="4.5"/><path d="M424.91267,380.87338c0,-7.78478 0,-19.10375 0,-25.23814c0,-3.46811 32.66639,-3.02162 32.66639,0.42873c0,5.97206 0,17.56219 0,25.20637c0,0.92917 -32.66638,1.17236 -32.66638,-0.39697z" fill="#be76a5" stroke="#000000" stroke-width="4.5"/><text transform="translate(430.68403,363.93154) scale(0.2454,0.2454)" font-size="40" xml:space="preserve" fill="#000000" stroke="#ffffff" stroke-width="1" font-family="Marker" font-weight="normal" text-anchor="start"><tspan x="0" dy="0">baby</tspan></text><text transform="translate(433.1007,374.87207) scale(0.2454,0.2454)" font-size="40" xml:space="preserve" fill="#000000" stroke="#ffffff" stroke-width="1" font-family="Marker" font-weight="normal" text-anchor="start"><tspan x="0" dy="0">OIL</tspan></text></g></g></g></svg>